<?xml version="1.0" encoding="UTF-8" standalone="no"?>
<!DOCTYPE svg PUBLIC "-//W3C//DTD SVG 1.1//EN"
 "http://www.w3.org/Graphics/SVG/1.1/DTD/svg11.dtd">
<!-- Generated by graphviz version 5.0.0 (20220707.1540)
 -->
<!-- Title: dependencies Pages: 1 -->
<svg width="1102pt" height="247pt"
 viewBox="0.00 0.00 1102.00 246.80" xmlns="http://www.w3.org/2000/svg" xmlns:xlink="http://www.w3.org/1999/xlink">
<g id="graph0" class="graph" transform="scale(1 1) rotate(0) translate(4 242.8)">
<title>dependencies</title>
<polygon fill="white" stroke="transparent" points="-4,4 -4,-242.8 1098,-242.8 1098,4 -4,4"/>
<text text-anchor="middle" x="547" y="-8.2" font-family="sans-serif" font-size="14.00">dependencies</text>
<g id="clust1" class="cluster">
<title>cluster_DashboardModule</title>
<polygon fill="none" stroke="black" stroke-dasharray="1,5" points="8,-32.8 8,-230.8 1086,-230.8 1086,-32.8 8,-32.8"/>
</g>
<g id="clust9" class="cluster">
<title>cluster_DashboardModule_exports</title>
<polygon fill="none" stroke="black" points="429,-170.8 429,-222.8 733,-222.8 733,-170.8 429,-170.8"/>
</g>
<g id="clust8" class="cluster">
<title>cluster_DashboardModule_imports</title>
<polygon fill="none" stroke="black" points="780,-40.8 780,-92.8 1078,-92.8 1078,-40.8 780,-40.8"/>
</g>
<g id="clust2" class="cluster">
<title>cluster_DashboardModule_declarations</title>
<polygon fill="none" stroke="black" points="16,-40.8 16,-92.8 772,-92.8 772,-40.8 16,-40.8"/>
</g>
<!-- ActionsComponent -->
<g id="node1" class="node">
<title>ActionsComponent</title>
<polygon fill="#ffffb3" stroke="black" points="764.38,-84.8 639.62,-84.8 639.62,-48.8 764.38,-48.8 764.38,-84.8"/>
<text text-anchor="middle" x="702" y="-62.6" font-family="Times,serif" font-size="14.00">ActionsComponent</text>
</g>
<!-- DashboardModule -->
<g id="node6" class="node">
<title>DashboardModule</title>
<polygon fill="#8dd3c7" stroke="black" points="625.2,-149.8 622.2,-153.8 601.2,-153.8 598.2,-149.8 504.8,-149.8 504.8,-113.8 625.2,-113.8 625.2,-149.8"/>
<text text-anchor="middle" x="565" y="-127.6" font-family="Times,serif" font-size="14.00">DashboardModule</text>
</g>
<!-- ActionsComponent&#45;&gt;DashboardModule -->
<g id="edge1" class="edge">
<title>ActionsComponent&#45;&gt;DashboardModule</title>
<path fill="none" stroke="black" d="M682.48,-84.83C682.48,-101.2 682.48,-122.8 682.48,-122.8 682.48,-122.8 635.12,-122.8 635.12,-122.8"/>
<polygon fill="black" stroke="black" points="635.12,-119.3 625.12,-122.8 635.12,-126.3 635.12,-119.3"/>
</g>
<!-- BarraComponent -->
<g id="node2" class="node">
<title>BarraComponent</title>
<polygon fill="#ffffb3" stroke="black" points="621.42,-84.8 508.58,-84.8 508.58,-48.8 621.42,-48.8 621.42,-84.8"/>
<text text-anchor="middle" x="565" y="-62.6" font-family="Times,serif" font-size="14.00">BarraComponent</text>
</g>
<!-- BarraComponent&#45;&gt;DashboardModule -->
<g id="edge2" class="edge">
<title>BarraComponent&#45;&gt;DashboardModule</title>
<path fill="none" stroke="black" d="M565,-84.91C565,-84.91 565,-103.79 565,-103.79"/>
<polygon fill="black" stroke="black" points="561.5,-103.79 565,-113.79 568.5,-103.79 561.5,-103.79"/>
</g>
<!-- CrearUsuarioComponent -->
<g id="node3" class="node">
<title>CrearUsuarioComponent</title>
<polygon fill="#ffffb3" stroke="black" points="490.25,-84.8 333.75,-84.8 333.75,-48.8 490.25,-48.8 490.25,-84.8"/>
<text text-anchor="middle" x="412" y="-62.6" font-family="Times,serif" font-size="14.00">CrearUsuarioComponent</text>
</g>
<!-- CrearUsuarioComponent&#45;&gt;DashboardModule -->
<g id="edge3" class="edge">
<title>CrearUsuarioComponent&#45;&gt;DashboardModule</title>
<path fill="none" stroke="black" d="M463.7,-84.83C463.7,-101.2 463.7,-122.8 463.7,-122.8 463.7,-122.8 494.61,-122.8 494.61,-122.8"/>
<polygon fill="black" stroke="black" points="494.61,-126.3 504.61,-122.8 494.61,-119.3 494.61,-126.3"/>
</g>
<!-- EditarUsuarioComponent -->
<g id="node4" class="node">
<title>EditarUsuarioComponent</title>
<polygon fill="#ffffb3" stroke="black" points="315.86,-84.8 156.14,-84.8 156.14,-48.8 315.86,-48.8 315.86,-84.8"/>
<text text-anchor="middle" x="236" y="-62.6" font-family="Times,serif" font-size="14.00">EditarUsuarioComponent</text>
</g>
<!-- EditarUsuarioComponent&#45;&gt;DashboardModule -->
<g id="edge4" class="edge">
<title>EditarUsuarioComponent&#45;&gt;DashboardModule</title>
<path fill="none" stroke="black" d="M236,-84.91C236,-104.14 236,-131.8 236,-131.8 236,-131.8 494.66,-131.8 494.66,-131.8"/>
<polygon fill="black" stroke="black" points="494.66,-135.3 504.66,-131.8 494.66,-128.3 494.66,-135.3"/>
</g>
<!-- UsersComponent -->
<g id="node5" class="node">
<title>UsersComponent</title>
<polygon fill="#ffffb3" stroke="black" points="137.71,-84.8 24.29,-84.8 24.29,-48.8 137.71,-48.8 137.71,-84.8"/>
<text text-anchor="middle" x="81" y="-62.6" font-family="Times,serif" font-size="14.00">UsersComponent</text>
</g>
<!-- UsersComponent&#45;&gt;DashboardModule -->
<g id="edge5" class="edge">
<title>UsersComponent&#45;&gt;DashboardModule</title>
<path fill="none" stroke="black" d="M81,-85.09C81,-107.01 81,-140.8 81,-140.8 81,-140.8 494.68,-140.8 494.68,-140.8"/>
<polygon fill="black" stroke="black" points="494.68,-144.3 504.68,-140.8 494.68,-137.3 494.68,-144.3"/>
</g>
<!-- DashboardRoutingModule  -->
<g id="node9" class="node">
<title>DashboardRoutingModule </title>
<polygon fill="#fb8072" stroke="black" points="725.32,-214.8 556.68,-214.8 556.68,-178.8 725.32,-178.8 725.32,-214.8"/>
<text text-anchor="middle" x="641" y="-192.6" font-family="Times,serif" font-size="14.00">DashboardRoutingModule </text>
</g>
<!-- DashboardModule&#45;&gt;DashboardRoutingModule  -->
<g id="edge8" class="edge">
<title>DashboardModule&#45;&gt;DashboardRoutingModule </title>
<path fill="none" stroke="black" stroke-dasharray="5,2" d="M590.85,-149.91C590.85,-149.91 590.85,-168.79 590.85,-168.79"/>
<polygon fill="black" stroke="black" points="587.35,-168.79 590.85,-178.79 594.35,-168.79 587.35,-168.79"/>
</g>
<!-- SharedModule  -->
<g id="node10" class="node">
<title>SharedModule </title>
<polygon fill="#fb8072" stroke="black" points="538.93,-214.8 437.07,-214.8 437.07,-178.8 538.93,-178.8 538.93,-214.8"/>
<text text-anchor="middle" x="488" y="-192.6" font-family="Times,serif" font-size="14.00">SharedModule </text>
</g>
<!-- DashboardModule&#45;&gt;SharedModule  -->
<g id="edge9" class="edge">
<title>DashboardModule&#45;&gt;SharedModule </title>
<path fill="none" stroke="black" stroke-dasharray="5,2" d="M521.93,-149.91C521.93,-149.91 521.93,-168.79 521.93,-168.79"/>
<polygon fill="black" stroke="black" points="518.43,-168.79 521.93,-178.79 525.43,-168.79 518.43,-168.79"/>
</g>
<!-- DashboardRoutingModule -->
<g id="node7" class="node">
<title>DashboardRoutingModule</title>
<polygon fill="#8dd3c7" stroke="black" points="1069.82,-84.8 1066.82,-88.8 1045.82,-88.8 1042.82,-84.8 904.18,-84.8 904.18,-48.8 1069.82,-48.8 1069.82,-84.8"/>
<text text-anchor="middle" x="987" y="-62.6" font-family="Times,serif" font-size="14.00">DashboardRoutingModule</text>
</g>
<!-- DashboardRoutingModule&#45;&gt;DashboardModule -->
<g id="edge6" class="edge">
<title>DashboardRoutingModule&#45;&gt;DashboardModule</title>
<path fill="none" stroke="black" d="M987,-85.09C987,-107.01 987,-140.8 987,-140.8 987,-140.8 635.46,-140.8 635.46,-140.8"/>
<polygon fill="black" stroke="black" points="635.46,-137.3 625.46,-140.8 635.46,-144.3 635.46,-137.3"/>
</g>
<!-- SharedModule -->
<g id="node8" class="node">
<title>SharedModule</title>
<polygon fill="#8dd3c7" stroke="black" points="886.43,-84.8 883.43,-88.8 862.43,-88.8 859.43,-84.8 787.57,-84.8 787.57,-48.8 886.43,-48.8 886.43,-84.8"/>
<text text-anchor="middle" x="837" y="-62.6" font-family="Times,serif" font-size="14.00">SharedModule</text>
</g>
<!-- SharedModule&#45;&gt;DashboardModule -->
<g id="edge7" class="edge">
<title>SharedModule&#45;&gt;DashboardModule</title>
<path fill="none" stroke="black" d="M837,-84.91C837,-104.14 837,-131.8 837,-131.8 837,-131.8 635.37,-131.8 635.37,-131.8"/>
<polygon fill="black" stroke="black" points="635.37,-128.3 625.37,-131.8 635.37,-135.3 635.37,-128.3"/>
</g>
</g>
</svg>
