<?xml version="1.0" encoding="UTF-8" standalone="no"?>
<!DOCTYPE svg PUBLIC "-//W3C//DTD SVG 1.1//EN"
 "http://www.w3.org/Graphics/SVG/1.1/DTD/svg11.dtd">
<!-- Generated by graphviz version 5.0.0 (20220707.1540)
 -->
<!-- Title: dependencies Pages: 1 -->
<svg width="1141pt" height="247pt"
 viewBox="0.00 0.00 1141.00 246.80" xmlns="http://www.w3.org/2000/svg" xmlns:xlink="http://www.w3.org/1999/xlink">
<g id="graph0" class="graph" transform="scale(1 1) rotate(0) translate(4 242.8)">
<title>dependencies</title>
<polygon fill="white" stroke="transparent" points="-4,4 -4,-242.8 1137,-242.8 1137,4 -4,4"/>
<text text-anchor="middle" x="566.5" y="-8.2" font-family="sans-serif" font-size="14.00">dependencies</text>
<g id="clust1" class="cluster">
<title>cluster_AppModule</title>
<polygon fill="none" stroke="black" stroke-dasharray="1,5" points="8,-32.8 8,-230.8 1125,-230.8 1125,-32.8 8,-32.8"/>
</g>
<g id="clust9" class="cluster">
<title>cluster_AppModule_imports</title>
<polygon fill="none" stroke="black" points="856,-40.8 856,-92.8 1117,-92.8 1117,-40.8 856,-40.8"/>
</g>
<g id="clust11" class="cluster">
<title>cluster_AppModule_bootstrap</title>
<polygon fill="none" stroke="black" points="488,-170.8 488,-222.8 612,-222.8 612,-170.8 488,-170.8"/>
</g>
<g id="clust2" class="cluster">
<title>cluster_AppModule_declarations</title>
<polygon fill="none" stroke="black" points="16,-40.8 16,-92.8 848,-92.8 848,-40.8 16,-40.8"/>
</g>
<!-- AgregandoNombrePipe -->
<g id="node1" class="node">
<title>AgregandoNombrePipe</title>
<polygon fill="#ffffb3" stroke="black" points="840.47,-84.8 691.53,-84.8 691.53,-48.8 840.47,-48.8 840.47,-84.8"/>
<text text-anchor="middle" x="766" y="-62.6" font-family="Times,serif" font-size="14.00">AgregandoNombrePipe</text>
</g>
<!-- AppModule -->
<g id="node7" class="node">
<title>AppModule</title>
<polygon fill="#8dd3c7" stroke="black" points="591.66,-149.8 588.66,-153.8 567.66,-153.8 564.66,-149.8 508.34,-149.8 508.34,-113.8 591.66,-113.8 591.66,-149.8"/>
<text text-anchor="middle" x="550" y="-127.6" font-family="Times,serif" font-size="14.00">AppModule</text>
</g>
<!-- AgregandoNombrePipe&#45;&gt;AppModule -->
<g id="edge1" class="edge">
<title>AgregandoNombrePipe&#45;&gt;AppModule</title>
<path fill="none" stroke="black" d="M766,-84.83C766,-101.2 766,-122.8 766,-122.8 766,-122.8 601.9,-122.8 601.9,-122.8"/>
<polygon fill="black" stroke="black" points="601.9,-119.3 591.9,-122.8 601.9,-126.3 601.9,-119.3"/>
</g>
<!-- AppComponent -->
<g id="node2" class="node">
<title>AppComponent</title>
<polygon fill="#ffffb3" stroke="black" points="673.94,-84.8 568.06,-84.8 568.06,-48.8 673.94,-48.8 673.94,-84.8"/>
<text text-anchor="middle" x="621" y="-62.6" font-family="Times,serif" font-size="14.00">AppComponent</text>
</g>
<!-- AppComponent&#45;&gt;AppModule -->
<g id="edge2" class="edge">
<title>AppComponent&#45;&gt;AppModule</title>
<path fill="none" stroke="black" d="M580.06,-84.91C580.06,-84.91 580.06,-103.79 580.06,-103.79"/>
<polygon fill="black" stroke="black" points="576.56,-103.79 580.06,-113.79 583.56,-103.79 576.56,-103.79"/>
</g>
<!-- DashboardComponent -->
<g id="node3" class="node">
<title>DashboardComponent</title>
<polygon fill="#ffffb3" stroke="black" points="549.98,-84.8 408.02,-84.8 408.02,-48.8 549.98,-48.8 549.98,-84.8"/>
<text text-anchor="middle" x="479" y="-62.6" font-family="Times,serif" font-size="14.00">DashboardComponent</text>
</g>
<!-- DashboardComponent&#45;&gt;AppModule -->
<g id="edge3" class="edge">
<title>DashboardComponent&#45;&gt;AppModule</title>
<path fill="none" stroke="black" d="M529.08,-84.91C529.08,-84.91 529.08,-103.79 529.08,-103.79"/>
<polygon fill="black" stroke="black" points="525.58,-103.79 529.08,-113.79 532.58,-103.79 525.58,-103.79"/>
</g>
<!-- ErrorComponent -->
<g id="node4" class="node">
<title>ErrorComponent</title>
<polygon fill="#ffffb3" stroke="black" points="390.37,-84.8 279.63,-84.8 279.63,-48.8 390.37,-48.8 390.37,-84.8"/>
<text text-anchor="middle" x="335" y="-62.6" font-family="Times,serif" font-size="14.00">ErrorComponent</text>
</g>
<!-- ErrorComponent&#45;&gt;AppModule -->
<g id="edge4" class="edge">
<title>ErrorComponent&#45;&gt;AppModule</title>
<path fill="none" stroke="black" d="M335,-84.83C335,-101.2 335,-122.8 335,-122.8 335,-122.8 498.29,-122.8 498.29,-122.8"/>
<polygon fill="black" stroke="black" points="498.29,-126.3 508.29,-122.8 498.29,-119.3 498.29,-126.3"/>
</g>
<!-- LoginComponent -->
<g id="node5" class="node">
<title>LoginComponent</title>
<polygon fill="#ffffb3" stroke="black" points="261.27,-84.8 146.73,-84.8 146.73,-48.8 261.27,-48.8 261.27,-84.8"/>
<text text-anchor="middle" x="204" y="-62.6" font-family="Times,serif" font-size="14.00">LoginComponent</text>
</g>
<!-- LoginComponent&#45;&gt;AppModule -->
<g id="edge5" class="edge">
<title>LoginComponent&#45;&gt;AppModule</title>
<path fill="none" stroke="black" d="M204,-84.91C204,-104.14 204,-131.8 204,-131.8 204,-131.8 498.26,-131.8 498.26,-131.8"/>
<polygon fill="black" stroke="black" points="498.26,-135.3 508.26,-131.8 498.26,-128.3 498.26,-135.3"/>
</g>
<!-- NavComponent -->
<g id="node6" class="node">
<title>NavComponent</title>
<polygon fill="#ffffb3" stroke="black" points="128.16,-84.8 23.84,-84.8 23.84,-48.8 128.16,-48.8 128.16,-84.8"/>
<text text-anchor="middle" x="76" y="-62.6" font-family="Times,serif" font-size="14.00">NavComponent</text>
</g>
<!-- NavComponent&#45;&gt;AppModule -->
<g id="edge6" class="edge">
<title>NavComponent&#45;&gt;AppModule</title>
<path fill="none" stroke="black" d="M76,-85.09C76,-107.01 76,-140.8 76,-140.8 76,-140.8 497.94,-140.8 497.94,-140.8"/>
<polygon fill="black" stroke="black" points="497.94,-144.3 507.94,-140.8 497.94,-137.3 497.94,-144.3"/>
</g>
<!-- AppComponent  -->
<g id="node10" class="node">
<title>AppComponent </title>
<polygon fill="#80b1d3" stroke="black" points="604.44,-214.8 495.56,-214.8 495.56,-178.8 604.44,-178.8 604.44,-214.8"/>
<text text-anchor="middle" x="550" y="-192.6" font-family="Times,serif" font-size="14.00">AppComponent </text>
</g>
<!-- AppModule&#45;&gt;AppComponent  -->
<g id="edge9" class="edge">
<title>AppModule&#45;&gt;AppComponent </title>
<path fill="none" stroke="black" stroke-dasharray="1,5" d="M550,-149.91C550,-149.91 550,-168.79 550,-168.79"/>
<polygon fill="black" stroke="black" points="546.5,-168.79 550,-178.79 553.5,-168.79 546.5,-168.79"/>
</g>
<!-- AppRoutingModule -->
<g id="node8" class="node">
<title>AppRoutingModule</title>
<polygon fill="#8dd3c7" stroke="black" points="1109.28,-84.8 1106.28,-88.8 1085.28,-88.8 1082.28,-84.8 980.72,-84.8 980.72,-48.8 1109.28,-48.8 1109.28,-84.8"/>
<text text-anchor="middle" x="1045" y="-62.6" font-family="Times,serif" font-size="14.00">AppRoutingModule</text>
</g>
<!-- AppRoutingModule&#45;&gt;AppModule -->
<g id="edge7" class="edge">
<title>AppRoutingModule&#45;&gt;AppModule</title>
<path fill="none" stroke="black" d="M1045,-85.09C1045,-107.01 1045,-140.8 1045,-140.8 1045,-140.8 601.78,-140.8 601.78,-140.8"/>
<polygon fill="black" stroke="black" points="601.78,-137.3 591.78,-140.8 601.78,-144.3 601.78,-137.3"/>
</g>
<!-- SharedModule -->
<g id="node9" class="node">
<title>SharedModule</title>
<polygon fill="#8dd3c7" stroke="black" points="962.43,-84.8 959.43,-88.8 938.43,-88.8 935.43,-84.8 863.57,-84.8 863.57,-48.8 962.43,-48.8 962.43,-84.8"/>
<text text-anchor="middle" x="913" y="-62.6" font-family="Times,serif" font-size="14.00">SharedModule</text>
</g>
<!-- SharedModule&#45;&gt;AppModule -->
<g id="edge8" class="edge">
<title>SharedModule&#45;&gt;AppModule</title>
<path fill="none" stroke="black" d="M913,-84.91C913,-104.14 913,-131.8 913,-131.8 913,-131.8 602,-131.8 602,-131.8"/>
<polygon fill="black" stroke="black" points="602,-128.3 592,-131.8 602,-135.3 602,-128.3"/>
</g>
</g>
</svg>
