<?xml version="1.0" encoding="UTF-8" standalone="no"?>
<!DOCTYPE svg PUBLIC "-//W3C//DTD SVG 1.1//EN"
 "http://www.w3.org/Graphics/SVG/1.1/DTD/svg11.dtd">
<!-- Generated by graphviz version 5.0.0 (20220707.1540)
 -->
<!-- Title: dependencies Pages: 1 -->
<svg width="2111pt" height="247pt"
 viewBox="0.00 0.00 2111.00 246.80" xmlns="http://www.w3.org/2000/svg" xmlns:xlink="http://www.w3.org/1999/xlink">
<g id="graph0" class="graph" transform="scale(1 1) rotate(0) translate(4 242.8)">
<title>dependencies</title>
<polygon fill="white" stroke="transparent" points="-4,4 -4,-242.8 2107,-242.8 2107,4 -4,4"/>
<text text-anchor="middle" x="1051.5" y="-8.2" font-family="sans-serif" font-size="14.00">dependencies</text>
<g id="clust1" class="cluster">
<title>cluster_AppModule</title>
<polygon fill="none" stroke="black" stroke-dasharray="1,5" points="8,-32.8 8,-230.8 1125,-230.8 1125,-32.8 8,-32.8"/>
</g>
<g id="clust2" class="cluster">
<title>cluster_AppModule_declarations</title>
<polygon fill="none" stroke="black" points="16,-40.8 16,-92.8 848,-92.8 848,-40.8 16,-40.8"/>
</g>
<g id="clust9" class="cluster">
<title>cluster_AppModule_imports</title>
<polygon fill="none" stroke="black" points="856,-40.8 856,-92.8 1117,-92.8 1117,-40.8 856,-40.8"/>
</g>
<g id="clust11" class="cluster">
<title>cluster_AppModule_bootstrap</title>
<polygon fill="none" stroke="black" points="488,-170.8 488,-222.8 612,-222.8 612,-170.8 488,-170.8"/>
</g>
<g id="clust19" class="cluster">
<title>cluster_DashboardModule</title>
<polygon fill="none" stroke="black" stroke-dasharray="1,5" points="1133,-32.8 1133,-230.8 2095,-230.8 2095,-32.8 1133,-32.8"/>
</g>
<g id="clust20" class="cluster">
<title>cluster_DashboardModule_declarations</title>
<polygon fill="none" stroke="black" points="1331,-40.8 1331,-92.8 2087,-92.8 2087,-40.8 1331,-40.8"/>
</g>
<g id="clust26" class="cluster">
<title>cluster_DashboardModule_imports</title>
<polygon fill="none" stroke="black" points="1141,-40.8 1141,-92.8 1323,-92.8 1323,-40.8 1141,-40.8"/>
</g>
<g id="clust27" class="cluster">
<title>cluster_DashboardModule_exports</title>
<polygon fill="none" stroke="black" points="1415,-170.8 1415,-222.8 1719,-222.8 1719,-170.8 1415,-170.8"/>
</g>
<!-- AgregandoNombrePipe -->
<g id="node1" class="node">
<title>AgregandoNombrePipe</title>
<polygon fill="#ffffb3" stroke="black" points="840.47,-84.8 691.53,-84.8 691.53,-48.8 840.47,-48.8 840.47,-84.8"/>
<text text-anchor="middle" x="766" y="-62.6" font-family="Times,serif" font-size="14.00">AgregandoNombrePipe</text>
</g>
<!-- AppModule -->
<g id="node7" class="node">
<title>AppModule</title>
<polygon fill="#8dd3c7" stroke="black" points="591.66,-149.8 588.66,-153.8 567.66,-153.8 564.66,-149.8 508.34,-149.8 508.34,-113.8 591.66,-113.8 591.66,-149.8"/>
<text text-anchor="middle" x="550" y="-127.6" font-family="Times,serif" font-size="14.00">AppModule</text>
</g>
<!-- AgregandoNombrePipe&#45;&gt;AppModule -->
<g id="edge1" class="edge">
<title>AgregandoNombrePipe&#45;&gt;AppModule</title>
<path fill="none" stroke="black" d="M766,-85.04C766,-100.37 766,-119.8 766,-119.8 766,-119.8 601.9,-119.8 601.9,-119.8"/>
<polygon fill="black" stroke="black" points="601.9,-116.3 591.9,-119.8 601.9,-123.3 601.9,-116.3"/>
</g>
<!-- AppComponent -->
<g id="node2" class="node">
<title>AppComponent</title>
<polygon fill="#ffffb3" stroke="black" points="673.94,-84.8 568.06,-84.8 568.06,-48.8 673.94,-48.8 673.94,-84.8"/>
<text text-anchor="middle" x="621" y="-62.6" font-family="Times,serif" font-size="14.00">AppComponent</text>
</g>
<!-- AppComponent&#45;&gt;AppModule -->
<g id="edge2" class="edge">
<title>AppComponent&#45;&gt;AppModule</title>
<path fill="none" stroke="black" d="M580.06,-84.91C580.06,-84.91 580.06,-103.79 580.06,-103.79"/>
<polygon fill="black" stroke="black" points="576.56,-103.79 580.06,-113.79 583.56,-103.79 576.56,-103.79"/>
</g>
<!-- DashboardComponent -->
<g id="node3" class="node">
<title>DashboardComponent</title>
<polygon fill="#ffffb3" stroke="black" points="549.98,-84.8 408.02,-84.8 408.02,-48.8 549.98,-48.8 549.98,-84.8"/>
<text text-anchor="middle" x="479" y="-62.6" font-family="Times,serif" font-size="14.00">DashboardComponent</text>
</g>
<!-- DashboardComponent&#45;&gt;AppModule -->
<g id="edge3" class="edge">
<title>DashboardComponent&#45;&gt;AppModule</title>
<path fill="none" stroke="black" d="M529.08,-84.91C529.08,-84.91 529.08,-103.79 529.08,-103.79"/>
<polygon fill="black" stroke="black" points="525.58,-103.79 529.08,-113.79 532.58,-103.79 525.58,-103.79"/>
</g>
<!-- ErrorComponent -->
<g id="node4" class="node">
<title>ErrorComponent</title>
<polygon fill="#ffffb3" stroke="black" points="390.37,-84.8 279.63,-84.8 279.63,-48.8 390.37,-48.8 390.37,-84.8"/>
<text text-anchor="middle" x="335" y="-62.6" font-family="Times,serif" font-size="14.00">ErrorComponent</text>
</g>
<!-- ErrorComponent&#45;&gt;AppModule -->
<g id="edge4" class="edge">
<title>ErrorComponent&#45;&gt;AppModule</title>
<path fill="none" stroke="black" d="M335,-84.83C335,-101.2 335,-122.8 335,-122.8 335,-122.8 498.29,-122.8 498.29,-122.8"/>
<polygon fill="black" stroke="black" points="498.29,-126.3 508.29,-122.8 498.29,-119.3 498.29,-126.3"/>
</g>
<!-- LoginComponent -->
<g id="node5" class="node">
<title>LoginComponent</title>
<polygon fill="#ffffb3" stroke="black" points="261.27,-84.8 146.73,-84.8 146.73,-48.8 261.27,-48.8 261.27,-84.8"/>
<text text-anchor="middle" x="204" y="-62.6" font-family="Times,serif" font-size="14.00">LoginComponent</text>
</g>
<!-- LoginComponent&#45;&gt;AppModule -->
<g id="edge5" class="edge">
<title>LoginComponent&#45;&gt;AppModule</title>
<path fill="none" stroke="black" d="M204,-84.91C204,-104.14 204,-131.8 204,-131.8 204,-131.8 498.26,-131.8 498.26,-131.8"/>
<polygon fill="black" stroke="black" points="498.26,-135.3 508.26,-131.8 498.26,-128.3 498.26,-135.3"/>
</g>
<!-- NavComponent -->
<g id="node6" class="node">
<title>NavComponent</title>
<polygon fill="#ffffb3" stroke="black" points="128.16,-84.8 23.84,-84.8 23.84,-48.8 128.16,-48.8 128.16,-84.8"/>
<text text-anchor="middle" x="76" y="-62.6" font-family="Times,serif" font-size="14.00">NavComponent</text>
</g>
<!-- NavComponent&#45;&gt;AppModule -->
<g id="edge6" class="edge">
<title>NavComponent&#45;&gt;AppModule</title>
<path fill="none" stroke="black" d="M76,-85.09C76,-107.01 76,-140.8 76,-140.8 76,-140.8 497.94,-140.8 497.94,-140.8"/>
<polygon fill="black" stroke="black" points="497.94,-144.3 507.94,-140.8 497.94,-137.3 497.94,-144.3"/>
</g>
<!-- AppComponent  -->
<g id="node10" class="node">
<title>AppComponent </title>
<polygon fill="#80b1d3" stroke="black" points="604.44,-214.8 495.56,-214.8 495.56,-178.8 604.44,-178.8 604.44,-214.8"/>
<text text-anchor="middle" x="550" y="-192.6" font-family="Times,serif" font-size="14.00">AppComponent </text>
</g>
<!-- AppModule&#45;&gt;AppComponent  -->
<g id="edge9" class="edge">
<title>AppModule&#45;&gt;AppComponent </title>
<path fill="none" stroke="black" stroke-dasharray="1,5" d="M550,-149.91C550,-149.91 550,-168.79 550,-168.79"/>
<polygon fill="black" stroke="black" points="546.5,-168.79 550,-178.79 553.5,-168.79 546.5,-168.79"/>
</g>
<!-- AppRoutingModule -->
<g id="node8" class="node">
<title>AppRoutingModule</title>
<polygon fill="#8dd3c7" stroke="black" points="992.28,-84.8 989.28,-88.8 968.28,-88.8 965.28,-84.8 863.72,-84.8 863.72,-48.8 992.28,-48.8 992.28,-84.8"/>
<text text-anchor="middle" x="928" y="-62.6" font-family="Times,serif" font-size="14.00">AppRoutingModule</text>
</g>
<!-- AppRoutingModule&#45;&gt;AppModule -->
<g id="edge7" class="edge">
<title>AppRoutingModule&#45;&gt;AppModule</title>
<path fill="none" stroke="black" d="M928,-84.83C928,-101.86 928,-124.8 928,-124.8 928,-124.8 601.9,-124.8 601.9,-124.8"/>
<polygon fill="black" stroke="black" points="601.9,-121.3 591.9,-124.8 601.9,-128.3 601.9,-121.3"/>
</g>
<!-- SharedModule -->
<g id="node9" class="node">
<title>SharedModule</title>
<polygon fill="#8dd3c7" stroke="black" points="1109.43,-84.8 1106.43,-88.8 1085.43,-88.8 1082.43,-84.8 1010.57,-84.8 1010.57,-48.8 1109.43,-48.8 1109.43,-84.8"/>
<text text-anchor="middle" x="1060" y="-62.6" font-family="Times,serif" font-size="14.00">SharedModule</text>
</g>
<!-- SharedModule&#45;&gt;AppModule -->
<g id="edge8" class="edge">
<title>SharedModule&#45;&gt;AppModule</title>
<path fill="none" stroke="black" d="M1043.6,-85.02C1043.6,-103.63 1043.6,-129.8 1043.6,-129.8 1043.6,-129.8 602.08,-129.8 602.08,-129.8"/>
<polygon fill="black" stroke="black" points="602.08,-126.3 592.08,-129.8 602.08,-133.3 602.08,-126.3"/>
</g>
<!-- DashboardModule -->
<g id="node16" class="node">
<title>DashboardModule</title>
<polygon fill="#8dd3c7" stroke="black" points="1611.2,-149.8 1608.2,-153.8 1587.2,-153.8 1584.2,-149.8 1490.8,-149.8 1490.8,-113.8 1611.2,-113.8 1611.2,-149.8"/>
<text text-anchor="middle" x="1551" y="-127.6" font-family="Times,serif" font-size="14.00">DashboardModule</text>
</g>
<!-- SharedModule&#45;&gt;DashboardModule -->
<g id="edge16" class="edge">
<title>SharedModule&#45;&gt;DashboardModule</title>
<path fill="none" stroke="black" d="M1076.4,-84.89C1076.4,-107.93 1076.4,-144.8 1076.4,-144.8 1076.4,-144.8 1480.89,-144.8 1480.89,-144.8"/>
<polygon fill="black" stroke="black" points="1480.89,-148.3 1490.89,-144.8 1480.89,-141.3 1480.89,-148.3"/>
</g>
<!-- ActionsComponent -->
<g id="node11" class="node">
<title>ActionsComponent</title>
<polygon fill="#ffffb3" stroke="black" points="2079.38,-84.8 1954.62,-84.8 1954.62,-48.8 2079.38,-48.8 2079.38,-84.8"/>
<text text-anchor="middle" x="2017" y="-62.6" font-family="Times,serif" font-size="14.00">ActionsComponent</text>
</g>
<!-- ActionsComponent&#45;&gt;DashboardModule -->
<g id="edge10" class="edge">
<title>ActionsComponent&#45;&gt;DashboardModule</title>
<path fill="none" stroke="black" d="M2017,-85.09C2017,-107.01 2017,-140.8 2017,-140.8 2017,-140.8 1621.44,-140.8 1621.44,-140.8"/>
<polygon fill="black" stroke="black" points="1621.44,-137.3 1611.44,-140.8 1621.44,-144.3 1621.44,-137.3"/>
</g>
<!-- BarraComponent -->
<g id="node12" class="node">
<title>BarraComponent</title>
<polygon fill="#ffffb3" stroke="black" points="1936.42,-84.8 1823.58,-84.8 1823.58,-48.8 1936.42,-48.8 1936.42,-84.8"/>
<text text-anchor="middle" x="1880" y="-62.6" font-family="Times,serif" font-size="14.00">BarraComponent</text>
</g>
<!-- BarraComponent&#45;&gt;DashboardModule -->
<g id="edge11" class="edge">
<title>BarraComponent&#45;&gt;DashboardModule</title>
<path fill="none" stroke="black" d="M1880,-84.91C1880,-104.14 1880,-131.8 1880,-131.8 1880,-131.8 1621.34,-131.8 1621.34,-131.8"/>
<polygon fill="black" stroke="black" points="1621.34,-128.3 1611.34,-131.8 1621.34,-135.3 1621.34,-128.3"/>
</g>
<!-- CrearUsuarioComponent -->
<g id="node13" class="node">
<title>CrearUsuarioComponent</title>
<polygon fill="#ffffb3" stroke="black" points="1805.25,-84.8 1648.75,-84.8 1648.75,-48.8 1805.25,-48.8 1805.25,-84.8"/>
<text text-anchor="middle" x="1727" y="-62.6" font-family="Times,serif" font-size="14.00">CrearUsuarioComponent</text>
</g>
<!-- CrearUsuarioComponent&#45;&gt;DashboardModule -->
<g id="edge12" class="edge">
<title>CrearUsuarioComponent&#45;&gt;DashboardModule</title>
<path fill="none" stroke="black" d="M1680.02,-84.83C1680.02,-101.2 1680.02,-122.8 1680.02,-122.8 1680.02,-122.8 1621.35,-122.8 1621.35,-122.8"/>
<polygon fill="black" stroke="black" points="1621.35,-119.3 1611.35,-122.8 1621.35,-126.3 1621.35,-119.3"/>
</g>
<!-- EditarUsuarioComponent -->
<g id="node14" class="node">
<title>EditarUsuarioComponent</title>
<polygon fill="#ffffb3" stroke="black" points="1630.86,-84.8 1471.14,-84.8 1471.14,-48.8 1630.86,-48.8 1630.86,-84.8"/>
<text text-anchor="middle" x="1551" y="-62.6" font-family="Times,serif" font-size="14.00">EditarUsuarioComponent</text>
</g>
<!-- EditarUsuarioComponent&#45;&gt;DashboardModule -->
<g id="edge13" class="edge">
<title>EditarUsuarioComponent&#45;&gt;DashboardModule</title>
<path fill="none" stroke="black" d="M1551,-84.91C1551,-84.91 1551,-103.79 1551,-103.79"/>
<polygon fill="black" stroke="black" points="1547.5,-103.79 1551,-113.79 1554.5,-103.79 1547.5,-103.79"/>
</g>
<!-- UsersComponent -->
<g id="node15" class="node">
<title>UsersComponent</title>
<polygon fill="#ffffb3" stroke="black" points="1452.71,-84.8 1339.29,-84.8 1339.29,-48.8 1452.71,-48.8 1452.71,-84.8"/>
<text text-anchor="middle" x="1396" y="-62.6" font-family="Times,serif" font-size="14.00">UsersComponent</text>
</g>
<!-- UsersComponent&#45;&gt;DashboardModule -->
<g id="edge14" class="edge">
<title>UsersComponent&#45;&gt;DashboardModule</title>
<path fill="none" stroke="black" d="M1437.82,-85.02C1437.82,-105.17 1437.82,-134.8 1437.82,-134.8 1437.82,-134.8 1480.77,-134.8 1480.77,-134.8"/>
<polygon fill="black" stroke="black" points="1480.77,-138.3 1490.77,-134.8 1480.77,-131.3 1480.77,-138.3"/>
</g>
<!-- DashboardRoutingModule  -->
<g id="node18" class="node">
<title>DashboardRoutingModule </title>
<polygon fill="#fb8072" stroke="black" points="1711.32,-214.8 1542.68,-214.8 1542.68,-178.8 1711.32,-178.8 1711.32,-214.8"/>
<text text-anchor="middle" x="1627" y="-192.6" font-family="Times,serif" font-size="14.00">DashboardRoutingModule </text>
</g>
<!-- DashboardModule&#45;&gt;DashboardRoutingModule  -->
<g id="edge17" class="edge">
<title>DashboardModule&#45;&gt;DashboardRoutingModule </title>
<path fill="none" stroke="black" stroke-dasharray="5,2" d="M1576.85,-149.91C1576.85,-149.91 1576.85,-168.79 1576.85,-168.79"/>
<polygon fill="black" stroke="black" points="1573.35,-168.79 1576.85,-178.79 1580.35,-168.79 1573.35,-168.79"/>
</g>
<!-- SharedModule  -->
<g id="node19" class="node">
<title>SharedModule </title>
<polygon fill="#fb8072" stroke="black" points="1524.93,-214.8 1423.07,-214.8 1423.07,-178.8 1524.93,-178.8 1524.93,-214.8"/>
<text text-anchor="middle" x="1474" y="-192.6" font-family="Times,serif" font-size="14.00">SharedModule </text>
</g>
<!-- DashboardModule&#45;&gt;SharedModule  -->
<g id="edge18" class="edge">
<title>DashboardModule&#45;&gt;SharedModule </title>
<path fill="none" stroke="black" stroke-dasharray="5,2" d="M1507.93,-149.91C1507.93,-149.91 1507.93,-168.79 1507.93,-168.79"/>
<polygon fill="black" stroke="black" points="1504.43,-168.79 1507.93,-178.79 1511.43,-168.79 1504.43,-168.79"/>
</g>
<!-- DashboardRoutingModule -->
<g id="node17" class="node">
<title>DashboardRoutingModule</title>
<polygon fill="#8dd3c7" stroke="black" points="1314.82,-84.8 1311.82,-88.8 1290.82,-88.8 1287.82,-84.8 1149.18,-84.8 1149.18,-48.8 1314.82,-48.8 1314.82,-84.8"/>
<text text-anchor="middle" x="1232" y="-62.6" font-family="Times,serif" font-size="14.00">DashboardRoutingModule</text>
</g>
<!-- DashboardRoutingModule&#45;&gt;DashboardModule -->
<g id="edge15" class="edge">
<title>DashboardRoutingModule&#45;&gt;DashboardModule</title>
<path fill="none" stroke="black" d="M1232,-84.84C1232,-106.46 1232,-139.8 1232,-139.8 1232,-139.8 1480.62,-139.8 1480.62,-139.8"/>
<polygon fill="black" stroke="black" points="1480.62,-143.3 1490.62,-139.8 1480.62,-136.3 1480.62,-143.3"/>
</g>
</g>
</svg>
